<svg xmlns="http://www.w3.org/2000/svg" viewBox="0 0 2200 2200"><defs><style>.cls-1{fill:#0d0d0f;}</style></defs><g id="Objects"><path class="cls-1" d="M1515.1,921a93.55,93.55,0,0,0-31.81,5.58l-.34.12-277,113V566.78A96.81,96.81,0,0,0,1109.11,470l-2.54,0c-52,1.35-94.24,45.26-94.24,97.89V1147c0,64,51.95,116,115.82,116a115.56,115.56,0,0,0,42.2-8l377-152a93.88,93.88,0,0,0-32.23-182Z"/><path class="cls-1" d="M2162.31,377.61A381,381,0,0,0,1822.39,37.69C1655.57,20.5,1394.82,0,1100,0S544.43,20.5,377.61,37.69A381,381,0,0,0,37.69,377.61C20.5,544.44,0,805.2,0,1100s20.5,555.56,37.69,722.39a381,381,0,0,0,339.92,339.92C544.43,2179.5,805.19,2200,1100,2200s555.57-20.5,722.4-37.69a381,381,0,0,0,339.91-339.92C2179.5,1655.57,2200,1394.82,2200,1100S2179.5,544.43,2162.31,377.61ZM1905,1713.24A214.94,214.94,0,0,1,1713.24,1905c-141.67,14.6-363,32-613.24,32s-471.57-17.4-613.23-32A214.93,214.93,0,0,1,295,1713.23c-14.6-141.66-32-363-32-613.23s17.4-471.57,32-613.23A214.93,214.93,0,0,1,486.77,295c141.65-14.6,363-32,613.23-32s471.58,17.4,613.24,32A214.93,214.93,0,0,1,1905,486.77c14.6,141.66,32,363,32,613.23S1919.6,1571.57,1905,1713.24Z"/></g></svg>